<?xml version="1.0" encoding="utf-8"?>
<!-- Generator: Adobe Illustrator 27.7.0, SVG Export Plug-In . SVG Version: 6.00 Build 0)  -->
<svg version="1.1" id="Capa_1" xmlns="http://www.w3.org/2000/svg" xmlns:xlink="http://www.w3.org/1999/xlink" x="0px" y="0px"
	 viewBox="0 0 400 200" style="enable-background:new 0 0 400 200;" xml:space="preserve">
<style type="text/css">
	.st0{fill:#0891B2;}
</style>
<g>
	<path class="st0" d="M38.7,165.6c-1.7-4.3-2.5-11.1-2.5-20.5c0-13.9,2-27.1,5.9-39.6c1-3.1,2.5-5.4,4.7-6.8
		c2.2-1.4,5.3-2.2,9.2-2.2c2.1,0,3.6,0.3,4.5,0.8c0.9,0.5,1.3,1.6,1.3,3c0,1.7-0.8,5.6-2.4,11.6c-1.1,4.3-1.9,8-2.6,11.2
		c-0.6,3.2-1.2,7.1-1.6,11.8c2.9-8.3,6.3-15.4,10.3-21.2c4-5.8,8.1-10.1,12.4-12.9c4.2-2.8,8.2-4.3,12-4.3c3.7,0,6.4,0.9,7.9,2.6
		c1.6,1.7,2.3,4.3,2.3,7.9c0,3.4-1,9.6-3,18.6c-0.9,3.9-1.4,6.7-1.8,8.7c5.3-13.2,11.3-22.7,17.8-28.7c6.5-6,12.6-9,18.3-9
		c7,0,10.4,3.5,10.4,10.4c0,4.2-1.2,11.7-3.5,22.6c-2,9.3-3,15.5-3,18.5c0,4.3,1.5,6.4,4.6,6.4c2.1,0,4.7-1.3,7.6-3.9
		c2.9-2.6,6.9-6.9,11.8-12.8c1.3-1.5,2.7-2.2,4.3-2.2c1.4,0,2.5,0.6,3.3,1.9c0.8,1.3,1.2,3,1.2,5.3c0,4.3-1,7.6-3,10
		c-4.6,5.7-9.5,10.3-14.8,14s-11.3,5.5-18.1,5.5c-5.5,0-9.6-1.6-12.4-4.7c-2.8-3.2-4.2-7.7-4.2-13.7c0-3,0.8-8.3,2.3-16
		c1.4-6.7,2.1-11.4,2.1-14c0-1.7-0.6-2.6-1.8-2.6c-1.4,0-3.4,1.8-5.9,5.4c-2.6,3.6-5.1,8.3-7.7,14.2c-2.6,5.9-4.7,12.1-6.3,18.6
		c-1.2,5.1-2.5,8.6-4.1,10.3c-1.6,1.7-4,2.6-7.5,2.6c-3.5,0-6.2-1.7-7.9-5.1c-1.8-3.4-2.6-7.5-2.6-12.3c0-4.1,0.5-10,1.6-17.7
		c0.9-6.8,1.3-11.3,1.3-13.5c0-1.7-0.6-2.6-1.8-2.6c-1.6,0-3.6,1.9-6.1,5.8c-2.5,3.9-4.8,8.8-7.1,14.8c-2.3,6-4.1,11.9-5.5,17.7
		c-1.2,5-2.5,8.4-4.1,10.2c-1.6,1.8-4,2.7-7.3,2.7C43.3,172,40.4,169.9,38.7,165.6z"/>
	<path class="st0" d="M230.2,137.3c0.8,1.3,1.2,3,1.2,5.3c0,4.3-1,7.6-3,10c-4,4.8-9.6,9.3-16.8,13.3c-7.2,4.1-15,6.1-23.2,6.1
		c-11.2,0-20-3-26.2-9.1c-6.2-6.1-9.3-14.4-9.3-25c0-7.4,1.5-14.3,4.7-20.6c3.1-6.4,7.4-11.4,12.9-15.2c5.5-3.7,11.7-5.6,18.7-5.6
		c6.2,0,11.2,1.8,14.9,5.5c3.7,3.7,5.6,8.7,5.6,15c0,7.4-2.7,13.7-7.9,19s-14.3,9.5-26.9,12.6c2.7,4.9,7.8,7.4,15.2,7.4
		c4.8,0,10.3-1.7,16.4-5.1c6.2-3.4,11.5-7.8,16-13.2c1.3-1.5,2.7-2.2,4.3-2.2C228.3,135.4,229.4,136.1,230.2,137.3z M176.4,119.1
		c-2.7,4.6-4.1,10.2-4.1,16.7v0.3c6.3-1.5,11.3-3.7,14.9-6.7c3.6-3,5.5-6.5,5.5-10.4c0-2-0.6-3.7-1.7-4.9c-1.1-1.2-2.7-1.8-4.6-1.8
		C182.5,112.2,179.1,114.5,176.4,119.1z"/>
	<path class="st0" d="M293.2,137.3c0.8,1.3,1.2,3,1.2,5.3c0,4.3-1,7.6-3,10c-4,4.8-9.6,9.3-16.8,13.3c-7.2,4.1-15,6.1-23.2,6.1
		c-11.2,0-20-3-26.2-9.1c-6.2-6.1-9.3-14.4-9.3-25c0-7.4,1.5-14.3,4.7-20.6c3.1-6.4,7.4-11.4,12.9-15.2c5.5-3.7,11.7-5.6,18.7-5.6
		c6.2,0,11.2,1.8,14.9,5.5c3.7,3.7,5.6,8.7,5.6,15c0,7.4-2.7,13.7-7.9,19c-5.3,5.3-14.3,9.5-26.9,12.6c2.7,4.9,7.8,7.4,15.2,7.4
		c4.8,0,10.3-1.7,16.4-5.1c6.2-3.4,11.5-7.8,16-13.2c1.3-1.5,2.7-2.2,4.3-2.2C291.3,135.4,292.4,136.1,293.2,137.3z M239.5,119.1
		c-2.7,4.6-4.1,10.2-4.1,16.7v0.3c6.3-1.5,11.3-3.7,14.9-6.7c3.6-3,5.5-6.5,5.5-10.4c0-2-0.6-3.7-1.7-4.9c-1.1-1.2-2.7-1.8-4.6-1.8
		C245.5,112.2,242.2,114.5,239.5,119.1z"/>
	<path class="st0" d="M356.3,137.3c0.8,1.3,1.2,3,1.2,5.3c0,4.3-1,7.6-3,10c-4.6,5.7-9.6,10.3-15.1,14c-5.5,3.6-11.7,5.5-18.8,5.5
		c-21.8,0-32.7-15.4-32.7-46.1c0-4.7,0.2-9.5,0.5-14.3h-6.3c-3.2,0-5.4-0.6-6.5-1.8s-1.7-3-1.7-5.6c0-6,2.4-9,7.2-9h9.1
		c1.8-11.8,4.6-22.5,8.3-32.3c3.7-9.7,8.3-17.5,13.6-23.3c5.3-5.8,11-8.7,17.1-8.7c4.5,0,8,2,10.6,5.9c2.6,4,3.9,8.9,3.9,14.9
		c0,16.6-7,31-20.9,43.3h18c1.7,0,2.9,0.4,3.7,1.1c0.7,0.7,1.1,2.1,1.1,4.2c0,7.4-6,11.1-18.1,11.1h-19.6c-0.2,5.4-0.3,9.5-0.3,12.5
		c0,11.1,1.3,18.9,3.9,23.4c2.6,4.5,6.8,6.7,12.4,6.7c4.6,0,8.7-1.4,12.2-4.2c3.5-2.8,7.7-7,12.5-12.5c1.3-1.5,2.7-2.2,4.3-2.2
		C354.4,135.4,355.5,136.1,356.3,137.3z M319.5,52.5c-2,4-3.8,9.6-5.6,16.7c-1.8,7.1-3.2,15-4.4,23.7c6.3-5.5,11-11.6,14.2-18.4
		c3.2-6.8,4.7-13,4.7-18.5c0-6.3-1.2-9.5-3.5-9.5C323.3,46.5,321.5,48.5,319.5,52.5z"/>
	<path class="st0" d="M344.2,169.9c-1.3-1.4-1.9-3.6-1.9-6.6c0-0.9,0.1-2.4,0.3-4.5c1.7-19.6,4.5-37.4,8.5-53.4
		c0.9-3.3,2.3-5.6,4.3-7c2-1.3,5.2-2,9.5-2c4.6,0,6.9,1.9,6.9,5.6c0,0.5-0.1,1.5-0.3,3c-4.8,22.9-7.7,42.1-8.7,57.6
		c-0.2,3.4-1.2,5.8-3,7.2c-1.8,1.4-4.6,2.1-8.5,2.1C347.8,172,345.4,171.3,344.2,169.9z M356.5,82.7c-2.2-2.1-3.4-5-3.4-8.7
		c0-3.7,1.5-6.9,4.4-9.4c2.9-2.5,6.6-3.8,11-3.8c4,0,7.2,1,9.6,2.9c2.5,1.9,3.7,4.7,3.7,8.2c0,4.3-1.4,7.7-4.2,10.2
		c-2.8,2.5-6.5,3.8-11.1,3.8C362.1,85.8,358.8,84.8,356.5,82.7z"/>
</g>
</svg>
